# xmcd
#
# Track frame offsets:
#	150
#	16620
#	32300
#	50780
#	53760
#	69185
#	85295
#	106670
#	123175
#	138760
#	153525
#	176055
#	193690
#	208065
#
# Disc length: 2994 seconds
#
# Revision: 1
# Processed by: cddbd v1.4b41PL3 Copyright (c) Steve Scherf et al.
# Submitted via: audiograbber 1.80
#
DISCID=af0bb00e
DTITLE=Alceu Valença - Performance
DYEAR=1900
DGENRE=
TTITLE0=perdeu o cio
TTITLE1=loa de lisboa
TTITLE2=tourneé nordestina (lua do lua)
TTITLE3=a chegada do quiabo
TTITLE4=quiabo sedutor
TTITLE5=o ovo e a galinha
TTITLE6=papagaio do futuro
TTITLE7=desprezo
TTITLE8=sete desejos
TTITLE9=tomara
TTITLE10=andar, andar
TTITLE11=tesoura do desejo
TTITLE12=junho
TTITLE13=te amo brasilia
EXTD=
EXTT0=
EXTT1=
EXTT2=
EXTT3=
EXTT4=
EXTT5=
EXTT6=
EXTT7=
EXTT8=
EXTT9=
EXTT10=
EXTT11=
EXTT12=
EXTT13=
PLAYORDER=
